<?xml version="1.0" encoding="UTF-8" standalone="no"?>
<!DOCTYPE svg PUBLIC "-//W3C//DTD SVG 1.1//EN" "http://www.w3.org/Graphics/SVG/1.1/DTD/svg11.dtd">
<svg version="1.1" xmlns="http://www.w3.org/2000/svg" xmlns:xlink="http://www.w3.org/1999/xlink" preserveAspectRatio="xMidYMid meet" viewBox="0 0 475 550" width="475" height="550"><defs><path d="M30.12 359.07C59.05 421.44 148.42 461.84 227.75 461.84C227.75 454.99 227.75 420.73 227.75 359.07C122.35 359.07 56.47 359.07 30.12 359.07ZM227.75 359.07C227.75 420.73 227.75 454.99 227.75 461.84C250.55 461.84 274.18 458.5 296.96 452.26C336.47 471.75 351.77 503.97 371.82 521.94C398.2 545.57 431.16 556.37 452.3 533.76C449.14 519.43 458.99 527.42 432.61 503.79C411.42 484.81 360.92 460.25 351.5 430.73C384.65 413.02 411.74 388.49 425.39 359.07C399.04 359.07 333.16 359.07 227.75 359.07ZM417.42 508.33C427.11 517.01 428.16 526.08 419.77 528.58C411.37 531.09 396.71 526.08 387.02 517.4C377.33 508.72 376.28 499.65 384.67 497.15C386.19 496.69 387.97 496.48 389.95 496.51C398.58 496.65 409.72 501.44 417.42 508.33Z" id="b4iwWHULWr"></path><path d="M13.84 310.84C13.84 380.33 109.61 436.67 227.75 436.67C244.44 436.67 260.68 435.54 276.27 433.42C330.77 452.75 348.41 493.28 372.41 514.78C400.68 540.1 426.3 543.6 442.58 538.74C458.86 533.88 465.81 520.65 437.54 495.33C414.15 474.38 357.42 447.09 349.83 414.17C405.34 391.44 441.67 353.64 441.67 310.84C441.67 241.34 345.9 185.01 227.75 185.01C109.61 185.01 13.84 241.34 13.84 310.84ZM421.26 500.2C431.64 509.5 432.77 519.21 423.78 521.9C414.78 524.58 399.08 519.22 388.69 509.92C378.31 500.62 377.18 490.9 386.17 488.22C387.8 487.73 389.71 487.5 391.82 487.53C401.08 487.68 413.01 492.81 421.26 500.2Z" id="bqQk1kwpN"></path><path d="M39 205.14C39 250.44 39 275.6 39 280.64C39 350.13 123.51 406.47 227.75 406.47C332 406.47 416.5 350.13 416.5 280.64C416.5 275.6 416.5 250.44 416.5 205.14L39 205.14Z" id="eiq43XGwC"></path><path d="M39 154.81C39 159.84 39 200.1 39 205.14C39 274.63 123.51 330.97 227.75 330.97C332 330.97 416.5 274.63 416.5 205.14C416.5 200.1 416.5 159.84 416.5 154.81C416.5 85.31 332 28.97 227.75 28.97C123.51 28.97 39 85.31 39 154.81Z" id="b1aO5Qq4"></path><path d="M39 117.05C39 154.8 39 175.78 39 179.97C39 249.47 123.51 305.8 227.75 305.8C332 305.8 416.5 249.47 416.5 179.97C416.5 175.78 416.5 154.8 416.5 117.05L39 117.05Z" id="d1VJw4rVPo"></path><path d="M416.5 117.05C416.5 179.6 332 230.3 227.75 230.3C123.51 230.3 39 179.6 39 117.05C39 54.51 123.51 3.8 227.75 3.8C332 3.8 416.5 54.51 416.5 117.05Z" id="b10WEHWHTH"></path><path d="M227.75 205.14C199.96 205.14 177.42 191.62 177.42 174.94C177.42 158.26 199.96 139.7 227.75 139.7C255.55 139.7 278.09 158.26 278.09 174.94C278.09 191.62 255.55 205.14 227.75 205.14Z" id="b2BetbtYUN"></path><path d="M227.75 89.37C199.96 89.37 177.42 75.85 177.42 59.17C177.42 42.49 199.96 23.94 227.75 23.94C255.55 23.94 278.09 42.49 278.09 59.17C278.09 75.85 255.55 89.37 227.75 89.37Z" id="bdF1RcNAP"></path><path d="M338.49 147.25C310.69 147.25 288.15 133.73 288.15 117.05C288.15 100.38 310.69 81.82 338.49 81.82C366.29 81.82 388.82 100.38 388.82 117.05C388.82 133.73 366.29 147.25 338.49 147.25Z" id="b29HlDarUH"></path><path d="M117.02 147.25C89.22 147.25 66.69 133.73 66.69 117.05C66.69 100.38 89.22 81.82 117.02 81.82C144.82 81.82 167.35 100.38 167.35 117.05C167.35 133.73 144.82 147.25 117.02 147.25Z" id="b1nBLj5szo"></path></defs><g><g><g><use xlink:href="#b4iwWHULWr" opacity="1" fill="#dadada" fill-opacity="1"></use><g><use xlink:href="#b4iwWHULWr" opacity="1" fill-opacity="0" stroke="#000000" stroke-width="1.67" stroke-opacity="0"></use></g></g><g><use xlink:href="#bqQk1kwpN" opacity="1" fill="#000000" fill-opacity="1"></use><g><use xlink:href="#bqQk1kwpN" opacity="1" fill-opacity="0" stroke="#000000" stroke-width="1.67" stroke-opacity="0"></use></g></g><g><use xlink:href="#eiq43XGwC" opacity="1" fill="#dadada" fill-opacity="1"></use><g><use xlink:href="#eiq43XGwC" opacity="1" fill-opacity="0" stroke="#000000" stroke-width="1.67" stroke-opacity="0"></use></g></g><g><use xlink:href="#b1aO5Qq4" opacity="1" fill="#3e2b08" fill-opacity="1"></use><g><use xlink:href="#b1aO5Qq4" opacity="1" fill-opacity="0" stroke="#000000" stroke-width="1.67" stroke-opacity="0"></use></g></g><g><use xlink:href="#d1VJw4rVPo" opacity="1" fill="#f0a3d6" fill-opacity="1"></use><g><use xlink:href="#d1VJw4rVPo" opacity="1" fill-opacity="0" stroke="#000000" stroke-width="1.67" stroke-opacity="0"></use></g></g><g><use xlink:href="#b10WEHWHTH" opacity="1" fill="#f9b5e5" fill-opacity="1"></use><g><use xlink:href="#b10WEHWHTH" opacity="1" fill-opacity="0" stroke="#000000" stroke-width="1.67" stroke-opacity="0"></use></g></g><g><use xlink:href="#b2BetbtYUN" opacity="1" fill="#27ae60" fill-opacity="1"></use><g><use xlink:href="#b2BetbtYUN" opacity="1" fill-opacity="0" stroke="#000000" stroke-width="1.67" stroke-opacity="0"></use></g></g><g><use xlink:href="#bdF1RcNAP" opacity="1" fill="#f1c40f" fill-opacity="1"></use><g><use xlink:href="#bdF1RcNAP" opacity="1" fill-opacity="0" stroke="#000000" stroke-width="1.67" stroke-opacity="0"></use></g></g><g><use xlink:href="#b29HlDarUH" opacity="1" fill="#c0392b" fill-opacity="1"></use><g><use xlink:href="#b29HlDarUH" opacity="1" fill-opacity="0" stroke="#000000" stroke-width="1.67" stroke-opacity="0"></use></g></g><g><use xlink:href="#b1nBLj5szo" opacity="1" fill="#2980b9" fill-opacity="1"></use><g><use xlink:href="#b1nBLj5szo" opacity="1" fill-opacity="0" stroke="#000000" stroke-width="1.67" stroke-opacity="0"></use></g></g></g></g></svg>