<?xml version="1.0" encoding="UTF-8" standalone="no"?>
<!-- Created with Inkscape (http://www.inkscape.org/) -->

<svg
   xmlns:dc="http://purl.org/dc/elements/1.1/"
   xmlns:cc="http://creativecommons.org/ns#"
   xmlns:rdf="http://www.w3.org/1999/02/22-rdf-syntax-ns#"
   xmlns:svg="http://www.w3.org/2000/svg"
   xmlns="http://www.w3.org/2000/svg"
   xmlns:sodipodi="http://sodipodi.sourceforge.net/DTD/sodipodi-0.dtd"
   xmlns:inkscape="http://www.inkscape.org/namespaces/inkscape"
   width="20cm"
   height="20cm"
   viewBox="0 0 200 199.99999"
   version="1.1"
   id="svg8"
   inkscape:version="0.92.4 (5da689c313, 2019-01-14)"
   sodipodi:docname="MightyPancakeLibSVG.svg">
  <defs
     id="defs2" />
  <sodipodi:namedview
     id="base"
     pagecolor="#ffffff"
     bordercolor="#808080"
     borderopacity="1"
     inkscape:pageopacity="0"
     inkscape:pageshadow="2"
     inkscape:zoom="0.49497475"
     inkscape:cx="-186.81626"
     inkscape:cy="409.51139"
     inkscape:document-units="cm"
     inkscape:current-layer="layer1"
     showgrid="true"
     units="cm"
     inkscape:showpageshadow="false"
     inkscape:window-width="1920"
     inkscape:window-height="1001"
     inkscape:window-x="-9"
     inkscape:window-y="-9"
     inkscape:window-maximized="1"
     inkscape:object-paths="false"
     inkscape:snap-intersection-paths="true"
     inkscape:snap-smooth-nodes="true"
     inkscape:snap-midpoints="true"
     inkscape:snap-object-midpoints="true"
     inkscape:snap-center="true"
     inkscape:snap-text-baseline="true"
     inkscape:pagecheckerboard="false" />
  <metadata
     id="metadata5">
    <rdf:RDF>
      <cc:Work
         rdf:about="">
        <dc:format>image/svg+xml</dc:format>
        <dc:type
           rdf:resource="http://purl.org/dc/dcmitype/StillImage" />
        <dc:title></dc:title>
      </cc:Work>
    </rdf:RDF>
  </metadata>
  <g
     inkscape:label="Layer 1"
     inkscape:groupmode="layer"
     id="layer1"
     transform="translate(0,-97.000009)">
    <g
       id="g852">
      <path
         inkscape:export-ydpi="182.8799"
         inkscape:export-xdpi="182.8799"
         id="path908-9-6-3-9-26-1-2"
         d="m 43.645466,223.76367 c 7.663799,16.5218 31.338864,27.22346 52.354463,27.22346 v -27.22346 z m 52.354463,0 v 27.22313 c 6.039201,0 12.297131,-0.885 18.332671,-2.5366 10.465,5.1632 14.5182,13.69873 19.83173,18.45807 6.9882,6.2592 15.718,9.12152 21.31853,3.132 -0.8366,-3.79694 1.77187,-1.68067 -5.21613,-7.93994 -5.61413,-5.0286 -18.99113,-11.53426 -21.4868,-19.35486 8.7808,-4.69107 15.95913,-11.18847 19.574,-18.9818 z m 42.964801,36.40806 c 2.28847,0.036 5.2388,1.30507 7.27713,3.1306 2.56734,2.2996 2.846,4.70167 0.62247,5.3654 -2.2234,0.66374 -6.1066,-0.662 -8.67373,-2.96146 -2.56754,-2.29947 -2.8464,-4.702 -0.62287,-5.36574 0.40327,-0.1204 0.8742,-0.17706 1.397,-0.1688 z"
         style="opacity:1;fill:#dadada;fill-opacity:1;stroke:none;stroke-width:1.66666663;stroke-linecap:square;stroke-linejoin:round;stroke-miterlimit:4;stroke-dasharray:none;stroke-opacity:1"
         inkscape:connector-curvature="0" />
      <path
         inkscape:export-ydpi="182.8799"
         inkscape:export-xdpi="182.8799"
         id="path1479-9-4-4-8-1"
         d="m 95.999929,177.65388 c -31.296131,0 -56.666664,14.92387 -56.666664,33.33332 0,18.40947 25.370533,33.333 56.666664,33.333 4.420731,0 8.723131,-0.29833 12.852601,-0.86167 14.43567,5.11987 19.10947,15.8588 25.46687,21.5532 7.48753,6.70667 14.27426,7.6344 18.58766,6.3466 4.31327,-1.28786 6.15313,-4.7914 -1.3344,-11.498 -6.19686,-5.55066 -21.22306,-12.78053 -23.23393,-21.50053 14.70293,-6.02167 24.32773,-16.03507 24.32773,-27.3726 0,-18.40945 -25.37033,-33.33332 -56.666531,-33.33332 z M 139.4622,257.7936 c 2.45193,0.0387 5.613,1.39847 7.79686,3.35447 2.751,2.46386 3.0498,5.038 0.66734,5.7492 -2.38214,0.7112 -6.5432,-0.70954 -9.2938,-3.17327 -2.75094,-2.46393 -3.04974,-5.03793 -0.66727,-5.7492 0.43213,-0.12893 0.9366,-0.19 1.49687,-0.1812 z"
         style="opacity:1;fill:#000000;fill-opacity:1;stroke:none;stroke-width:1.66666663;stroke-linecap:square;stroke-linejoin:round;stroke-miterlimit:4;stroke-dasharray:none;stroke-opacity:1"
         inkscape:connector-curvature="0" />
      <path
         inkscape:export-ydpi="182.8799"
         inkscape:export-xdpi="182.8799"
         sodipodi:nodetypes="cccccc"
         inkscape:connector-curvature="0"
         id="path908-1-2"
         d="M 46.000199,182.98704 V 202.987 c -6.7e-5,18.4094 22.385531,33.33327 49.999664,33.33333 C 123.61413,236.3204 146,221.39653 145.99993,202.987 v -19.99996 z"
         style="opacity:1;fill:#dadada;fill-opacity:1;stroke:none;stroke-width:1.66666663;stroke-linecap:square;stroke-linejoin:round;stroke-miterlimit:4;stroke-dasharray:none;stroke-opacity:1" />
      <path
         inkscape:export-ydpi="182.8799"
         inkscape:export-xdpi="182.8799"
         sodipodi:nodetypes="ccccccc"
         inkscape:connector-curvature="0"
         id="path908-0-7-8-3"
         d="m 95.999863,136.32048 c -27.614133,1.2e-4 -49.999731,14.92395 -49.999664,33.33337 v 13.33321 c -6.7e-5,18.40941 22.385531,33.33321 49.999664,33.33334 27.614267,0 50.000137,-14.92386 50.000067,-33.33334 V 169.65385 C 146,151.24433 123.61413,136.32046 95.999863,136.32048 Z"
         style="opacity:1;fill:#3e2b08;fill-opacity:1;stroke:none;stroke-width:1.66666663;stroke-linecap:square;stroke-linejoin:round;stroke-miterlimit:4;stroke-dasharray:none;stroke-opacity:1" />
      <path
         inkscape:export-ydpi="182.8799"
         inkscape:export-xdpi="182.8799"
         sodipodi:nodetypes="cccccc"
         inkscape:connector-curvature="0"
         id="path908-0-95-3"
         d="m 46.000065,159.65371 1.34e-4,16.66668 c -6.7e-5,18.40942 22.385531,33.33321 49.999664,33.33334 27.614267,0 50.000137,-14.92382 50.000067,-33.33334 l 1.3e-4,-16.66668 z"
         style="opacity:1;fill:#f0a3d6;fill-opacity:1;stroke:none;stroke-width:1.66666663;stroke-linecap:square;stroke-linejoin:round;stroke-miterlimit:4;stroke-dasharray:none;stroke-opacity:1" />
      <ellipse
         inkscape:export-ydpi="182.8799"
         inkscape:export-xdpi="182.8799"
         ry="29.999998"
         rx="50"
         cy="159.65369"
         cx="96.000076"
         id="path1051-0-9"
         style="opacity:1;fill:#f9b5e5;fill-opacity:1;stroke:none;stroke-width:1.66666663;stroke-linecap:square;stroke-linejoin:round;stroke-miterlimit:4;stroke-dasharray:none;stroke-opacity:1" />
      <path
         inkscape:export-ydpi="182.8799"
         inkscape:export-xdpi="182.8799"
         sodipodi:nodetypes="sssss"
         inkscape:connector-curvature="0"
         id="path1051-2-0-8"
         d="m 109.3334,174.98706 c 0,4.41828 -5.96954,8 -13.333337,8 -7.3638,0 -13.333333,-3.58172 -13.333333,-8 0,-4.41828 5.969533,-9.33335 13.333333,-9.33335 7.363797,0 13.333337,4.91507 13.333337,9.33335 z"
         style="opacity:1;fill:#27ae60;fill-opacity:1;stroke:none;stroke-width:1.66666663;stroke-linecap:square;stroke-linejoin:round;stroke-miterlimit:4;stroke-dasharray:none;stroke-opacity:1" />
      <path
         inkscape:export-ydpi="182.8799"
         inkscape:export-xdpi="182.8799"
         sodipodi:nodetypes="sssss"
         inkscape:connector-curvature="0"
         id="path1051-2-9-2-2"
         d="m 109.3334,144.32039 c 0,4.41828 -5.96954,8 -13.333337,8 -7.3638,0 -13.333333,-3.58172 -13.333333,-8 0,-4.41828 5.969533,-9.33335 13.333333,-9.33335 7.363797,0 13.333337,4.91507 13.333337,9.33335 z"
         style="opacity:1;fill:#f1c40f;fill-opacity:1;stroke:none;stroke-width:1.66666663;stroke-linecap:square;stroke-linejoin:round;stroke-miterlimit:4;stroke-dasharray:none;stroke-opacity:1" />
      <path
         inkscape:export-ydpi="182.8799"
         inkscape:export-xdpi="182.8799"
         sodipodi:nodetypes="sssss"
         inkscape:connector-curvature="0"
         id="path1051-2-9-6-3-8"
         d="m 138.66673,159.65372 c 0,4.41828 -5.96953,8 -13.33333,8 -7.3638,0 -13.33334,-3.58172 -13.33334,-8 0,-4.41828 5.96954,-9.33334 13.33334,-9.33334 7.3638,0 13.33333,4.91506 13.33333,9.33334 z"
         style="opacity:1;fill:#c0392b;fill-opacity:1;stroke:none;stroke-width:1.66666663;stroke-linecap:square;stroke-linejoin:round;stroke-miterlimit:4;stroke-dasharray:none;stroke-opacity:1" />
      <path
         inkscape:export-ydpi="182.8799"
         inkscape:export-xdpi="182.8799"
         sodipodi:nodetypes="sssss"
         inkscape:connector-curvature="0"
         id="path1051-2-9-6-4-3-5"
         d="m 80.000063,159.65372 c 0,4.41828 -5.969533,8 -13.333333,8 -7.363798,0 -13.333333,-3.58172 -13.333333,-8 0,-4.41828 5.969535,-9.33334 13.333333,-9.33334 7.3638,0 13.333333,4.91506 13.333333,9.33334 z"
         style="opacity:1;fill:#2980b9;fill-opacity:1;stroke:none;stroke-width:1.66666663;stroke-linecap:square;stroke-linejoin:round;stroke-miterlimit:4;stroke-dasharray:none;stroke-opacity:1" />
    </g>
  </g>
</svg>
