<?xml version="1.0" encoding="UTF-8" standalone="no"?>
<!DOCTYPE svg PUBLIC "-//W3C//DTD SVG 1.1//EN" "http://www.w3.org/Graphics/SVG/1.1/DTD/svg11.dtd">
<svg version="1.1" xmlns="http://www.w3.org/2000/svg" xmlns:xlink="http://www.w3.org/1999/xlink" preserveAspectRatio="xMidYMid meet" viewBox="0 0 150 160" width="150" height="160"><defs><path d="M76.92 133.82C76.92 131.87 76.92 122.15 76.92 104.65C45.84 104.65 26.41 104.65 18.64 104.65C27.17 122.35 53.52 133.82 76.92 133.82ZM76.92 133.82C83.64 133.82 90.61 132.87 97.32 131.1C108.97 136.63 113.49 145.78 119.4 150.88C127.18 157.59 136.9 160.65 143.13 154.23C142.2 150.17 145.1 152.43 137.32 145.73C131.07 140.34 116.18 133.37 113.41 124.99C123.18 119.96 131.17 113 135.19 104.65C127.42 104.65 108 104.65 76.92 104.65C76.92 122.15 76.92 131.87 76.92 133.82ZM133.54 152.76C131.06 153.48 126.74 152.05 123.88 149.59C121.02 147.13 120.71 144.55 123.19 143.84C123.64 143.71 124.16 143.65 124.74 143.66C127.29 143.7 130.57 145.06 132.84 147.01C135.7 149.48 136.01 152.05 133.54 152.76Z" id="gwGY9cU8j"></path><path d="M76.92 133.82C76.92 131.87 76.92 122.15 76.92 104.65C45.84 104.65 26.41 104.65 18.64 104.65C27.17 122.35 53.52 133.82 76.92 133.82ZM76.92 133.82C83.64 133.82 90.61 132.87 97.32 131.1C108.97 136.63 113.49 145.78 119.4 150.88C127.18 157.59 136.9 160.65 143.13 154.23C142.2 150.17 145.1 152.43 137.32 145.73C131.07 140.34 116.18 133.37 113.41 124.99C123.18 119.96 131.17 113 135.19 104.65C127.42 104.65 108 104.65 76.92 104.65C76.92 122.15 76.92 131.87 76.92 133.82ZM133.54 152.76C131.06 153.48 126.74 152.05 123.88 149.59C121.02 147.13 120.71 144.55 123.19 143.84C123.64 143.71 124.16 143.65 124.74 143.66C127.29 143.7 130.57 145.06 132.84 147.01C135.7 149.48 136.01 152.05 133.54 152.76Z" id="c5eFECkZp"></path><path d="M76.92 126.67C81.84 126.67 86.63 126.35 91.22 125.75C107.29 131.24 112.49 142.74 119.57 148.85C127.91 156.03 135.46 157.03 140.26 155.65C145.06 154.27 147.11 150.51 138.78 143.32C131.88 137.38 115.15 129.63 112.91 120.29C129.28 113.83 139.99 103.1 139.99 90.96C139.99 71.23 111.75 55.24 76.92 55.24C42.08 55.24 13.84 71.23 13.84 90.96C13.84 110.68 42.08 126.67 76.92 126.67ZM134.72 150.87C132.07 151.63 127.44 150.11 124.37 147.47C121.31 144.83 120.98 142.07 123.63 141.31C124.11 141.17 124.67 141.1 125.3 141.11C128.03 141.15 131.54 142.61 133.98 144.71C137.04 147.35 137.37 150.1 134.72 150.87Z" id="gcz9xvaEd"></path><path d="M76.92 126.67C81.84 126.67 86.63 126.35 91.22 125.75C107.29 131.24 112.49 142.74 119.57 148.85C127.91 156.03 135.46 157.03 140.26 155.65C145.06 154.27 147.11 150.51 138.78 143.32C131.88 137.38 115.15 129.63 112.91 120.29C129.28 113.83 139.99 103.1 139.99 90.96C139.99 71.23 111.75 55.24 76.92 55.24C42.08 55.24 13.84 71.23 13.84 90.96C13.84 110.68 42.08 126.67 76.92 126.67ZM134.72 150.87C132.07 151.63 127.44 150.11 124.37 147.47C121.31 144.83 120.98 142.07 123.63 141.31C124.11 141.17 124.67 141.1 125.3 141.11C128.03 141.15 131.54 142.61 133.98 144.71C137.04 147.35 137.37 150.1 134.72 150.87Z" id="hWQVqbWna"></path><path d="M21.26 82.38C21.26 102.11 46.18 118.1 76.92 118.1C107.66 118.1 132.57 102.11 132.57 82.38C132.57 80.95 132.57 73.81 132.57 60.95C125.15 60.95 88.05 60.95 21.26 60.95C21.26 74.29 21.26 81.43 21.26 82.38Z" id="b1NgUcNnr0"></path><path d="M21.26 82.38C21.26 102.11 46.18 118.1 76.92 118.1C107.66 118.1 132.57 102.11 132.57 82.38C132.57 80.95 132.57 73.81 132.57 60.95C125.15 60.95 88.05 60.95 21.26 60.95C21.26 74.29 21.26 81.43 21.26 82.38Z" id="b5OeKfKCX"></path><path d="M21.26 60.95C21.26 80.68 46.18 96.67 76.92 96.67C107.66 96.67 132.57 80.68 132.57 60.95C132.57 59.52 132.57 48.09 132.57 46.67C132.57 26.94 107.66 10.94 76.92 10.94C46.18 10.94 21.26 26.94 21.26 46.67C21.26 48.09 21.26 59.52 21.26 60.95Z" id="bSzyD00vZ"></path><path d="M21.26 60.95C21.26 80.68 46.18 96.67 76.92 96.67C107.66 96.67 132.57 80.68 132.57 60.95C132.57 59.52 132.57 48.09 132.57 46.67C132.57 26.94 107.66 10.94 76.92 10.94C46.18 10.94 21.26 26.94 21.26 46.67C21.26 48.09 21.26 59.52 21.26 60.95Z" id="aTsKG5M99"></path><path d="M21.26 53.81C21.26 73.54 46.18 89.53 76.92 89.53C107.66 89.53 132.57 73.54 132.57 53.81C132.57 52.62 132.57 46.66 132.57 35.95C125.15 35.95 88.05 35.95 21.26 35.95C21.26 47.06 21.26 53.01 21.26 53.81Z" id="d2KmdRvNdl"></path><path d="M21.26 53.81C21.26 73.54 46.18 89.53 76.92 89.53C107.66 89.53 132.57 73.54 132.57 53.81C132.57 52.62 132.57 46.66 132.57 35.95C125.15 35.95 88.05 35.95 21.26 35.95C21.26 47.06 21.26 53.01 21.26 53.81Z" id="h2wmfcmUqy"></path><path d="M76.92 68.09C46.18 68.09 21.26 53.7 21.26 35.95C21.26 18.19 46.18 3.8 76.92 3.8C107.66 3.8 132.57 18.19 132.57 35.95C132.57 53.7 107.66 68.09 76.92 68.09Z" id="b1BLfdbQ4x"></path><path d="M76.92 68.09C46.18 68.09 21.26 53.7 21.26 35.95C21.26 18.19 46.18 3.8 76.92 3.8C107.66 3.8 132.57 18.19 132.57 35.95C132.57 53.7 107.66 68.09 76.92 68.09Z" id="a2K3QnWUeB"></path><path d="M62.07 52.38C62.07 47.64 68.72 42.38 76.92 42.38C85.11 42.38 91.76 47.64 91.76 52.38C91.76 57.11 85.11 60.95 76.92 60.95C68.72 60.95 62.07 57.11 62.07 52.38Z" id="a1zuRWss7"></path><path d="M62.07 52.38C62.07 47.64 68.72 42.38 76.92 42.38C85.11 42.38 91.76 47.64 91.76 52.38C91.76 57.11 85.11 60.95 76.92 60.95C68.72 60.95 62.07 57.11 62.07 52.38Z" id="cJbMW397i"></path><path d="M62.07 19.52C62.07 14.78 68.72 9.52 76.92 9.52C85.11 9.52 91.76 14.78 91.76 19.52C91.76 24.25 85.11 28.09 76.92 28.09C68.72 28.09 62.07 24.25 62.07 19.52Z" id="b3CjN8lU7J"></path><path d="M62.07 19.52C62.07 14.78 68.72 9.52 76.92 9.52C85.11 9.52 91.76 14.78 91.76 19.52C91.76 24.25 85.11 28.09 76.92 28.09C68.72 28.09 62.07 24.25 62.07 19.52Z" id="cE2e3yrzL"></path><path d="M94.73 35.95C94.73 31.21 101.37 25.95 109.57 25.95C117.77 25.95 124.41 31.21 124.41 35.95C124.41 40.68 117.77 44.52 109.57 44.52C101.37 44.52 94.73 40.68 94.73 35.95Z" id="agHn7Dimj"></path><path d="M94.73 35.95C94.73 31.21 101.37 25.95 109.57 25.95C117.77 25.95 124.41 31.21 124.41 35.95C124.41 40.68 117.77 44.52 109.57 44.52C101.37 44.52 94.73 40.68 94.73 35.95Z" id="diUWo1cfW"></path><path d="M29.42 35.95C29.42 31.21 36.07 25.95 44.26 25.95C52.46 25.95 59.11 31.21 59.11 35.95C59.11 40.68 52.46 44.52 44.26 44.52C36.07 44.52 29.42 40.68 29.42 35.95Z" id="brcij0cpC"></path><path d="M29.42 35.95C29.42 31.21 36.07 25.95 44.26 25.95C52.46 25.95 59.11 31.21 59.11 35.95C59.11 40.68 52.46 44.52 44.26 44.52C36.07 44.52 29.42 40.68 29.42 35.95Z" id="fBIepWBvA"></path></defs><g><g><g><use xlink:href="#gwGY9cU8j" opacity="1" fill="#dadada" fill-opacity="1"></use><g><use xlink:href="#gwGY9cU8j" opacity="1" fill-opacity="0" stroke="#000000" stroke-width="1" stroke-opacity="0"></use></g></g><g><use xlink:href="#c5eFECkZp" opacity="1" fill="#000000" fill-opacity="0"></use><g><use xlink:href="#c5eFECkZp" opacity="1" fill-opacity="0" stroke="#000000" stroke-width="1.67" stroke-opacity="0"></use></g></g><g><use xlink:href="#gcz9xvaEd" opacity="1" fill="#000000" fill-opacity="1"></use><g><use xlink:href="#gcz9xvaEd" opacity="1" fill-opacity="0" stroke="#000000" stroke-width="1" stroke-opacity="0"></use></g></g><g><use xlink:href="#hWQVqbWna" opacity="1" fill="#000000" fill-opacity="0"></use><g><use xlink:href="#hWQVqbWna" opacity="1" fill-opacity="0" stroke="#000000" stroke-width="1.67" stroke-opacity="0"></use></g></g><g><use xlink:href="#b1NgUcNnr0" opacity="1" fill="#dadada" fill-opacity="1"></use><g><use xlink:href="#b1NgUcNnr0" opacity="1" fill-opacity="0" stroke="#000000" stroke-width="1" stroke-opacity="0"></use></g></g><g><use xlink:href="#b5OeKfKCX" opacity="1" fill="#000000" fill-opacity="0"></use><g><use xlink:href="#b5OeKfKCX" opacity="1" fill-opacity="0" stroke="#000000" stroke-width="1.67" stroke-opacity="0"></use></g></g><g><use xlink:href="#bSzyD00vZ" opacity="1" fill="#3e2b08" fill-opacity="1"></use><g><use xlink:href="#bSzyD00vZ" opacity="1" fill-opacity="0" stroke="#000000" stroke-width="1" stroke-opacity="0"></use></g></g><g><use xlink:href="#aTsKG5M99" opacity="1" fill="#000000" fill-opacity="0"></use><g><use xlink:href="#aTsKG5M99" opacity="1" fill-opacity="0" stroke="#000000" stroke-width="1.67" stroke-opacity="0"></use></g></g><g><use xlink:href="#d2KmdRvNdl" opacity="1" fill="#f0a3d6" fill-opacity="1"></use><g><use xlink:href="#d2KmdRvNdl" opacity="1" fill-opacity="0" stroke="#000000" stroke-width="1" stroke-opacity="0"></use></g></g><g><use xlink:href="#h2wmfcmUqy" opacity="1" fill="#000000" fill-opacity="0"></use><g><use xlink:href="#h2wmfcmUqy" opacity="1" fill-opacity="0" stroke="#000000" stroke-width="1.67" stroke-opacity="0"></use></g></g><g><use xlink:href="#b1BLfdbQ4x" opacity="1" fill="#f9b5e5" fill-opacity="1"></use><g><use xlink:href="#b1BLfdbQ4x" opacity="1" fill-opacity="0" stroke="#000000" stroke-width="1" stroke-opacity="0"></use></g></g><g><use xlink:href="#a2K3QnWUeB" opacity="1" fill="#000000" fill-opacity="0"></use><g><use xlink:href="#a2K3QnWUeB" opacity="1" fill-opacity="0" stroke="#000000" stroke-width="1.67" stroke-opacity="0"></use></g></g><g><use xlink:href="#a1zuRWss7" opacity="1" fill="#27ae60" fill-opacity="1"></use><g><use xlink:href="#a1zuRWss7" opacity="1" fill-opacity="0" stroke="#000000" stroke-width="1" stroke-opacity="0"></use></g></g><g><use xlink:href="#cJbMW397i" opacity="1" fill="#000000" fill-opacity="0"></use><g><use xlink:href="#cJbMW397i" opacity="1" fill-opacity="0" stroke="#000000" stroke-width="1.67" stroke-opacity="0"></use></g></g><g><use xlink:href="#b3CjN8lU7J" opacity="1" fill="#f1c40f" fill-opacity="1"></use><g><use xlink:href="#b3CjN8lU7J" opacity="1" fill-opacity="0" stroke="#000000" stroke-width="1" stroke-opacity="0"></use></g></g><g><use xlink:href="#cE2e3yrzL" opacity="1" fill="#000000" fill-opacity="0"></use><g><use xlink:href="#cE2e3yrzL" opacity="1" fill-opacity="0" stroke="#000000" stroke-width="1.67" stroke-opacity="0"></use></g></g><g><use xlink:href="#agHn7Dimj" opacity="1" fill="#c0392b" fill-opacity="1"></use><g><use xlink:href="#agHn7Dimj" opacity="1" fill-opacity="0" stroke="#000000" stroke-width="1" stroke-opacity="0"></use></g></g><g><use xlink:href="#diUWo1cfW" opacity="1" fill="#000000" fill-opacity="0"></use><g><use xlink:href="#diUWo1cfW" opacity="1" fill-opacity="0" stroke="#000000" stroke-width="1.67" stroke-opacity="0"></use></g></g><g><use xlink:href="#brcij0cpC" opacity="1" fill="#2980b9" fill-opacity="1"></use><g><use xlink:href="#brcij0cpC" opacity="1" fill-opacity="0" stroke="#000000" stroke-width="1" stroke-opacity="0"></use></g></g><g><use xlink:href="#fBIepWBvA" opacity="1" fill="#000000" fill-opacity="0"></use><g><use xlink:href="#fBIepWBvA" opacity="1" fill-opacity="0" stroke="#000000" stroke-width="1.67" stroke-opacity="0"></use></g></g></g></g></svg>