<?xml version="1.0" standalone="no"?>
<!DOCTYPE svg PUBLIC "-//W3C//DTD SVG 20010904//EN"
 "http://www.w3.org/TR/2001/REC-SVG-20010904/DTD/svg10.dtd">
<svg version="1.0" xmlns="http://www.w3.org/2000/svg"
 width="2160.000000pt" height="2160.000000pt" viewBox="0 0 2160.000000 2160.000000"
 preserveAspectRatio="xMidYMid meet">
<metadata>
Created by potrace 1.11, written by Peter Selinger 2001-2013
</metadata>
<g transform="translate(0.000000,2160.000000) scale(0.100000,-0.100000)"
fill="#000000" stroke="none">
<path d="M10277 18074 c-1 -1 -103 -5 -227 -8 -124 -4 -236 -8 -250 -10 -14
-2 -72 -7 -130 -11 -58 -3 -118 -8 -135 -10 -16 -2 -61 -7 -100 -10 -38 -3
-77 -8 -85 -10 -8 -2 -42 -6 -75 -10 -69 -6 -141 -16 -170 -22 -11 -2 -38 -6
-60 -9 -22 -3 -62 -9 -90 -14 -27 -5 -68 -12 -90 -15 -22 -3 -47 -7 -55 -10
-8 -2 -32 -6 -52 -9 -21 -3 -81 -15 -135 -27 -54 -12 -102 -22 -108 -23 -33
-6 -181 -41 -243 -58 -40 -11 -81 -21 -91 -23 -33 -6 -294 -84 -386 -114 -49
-17 -112 -38 -140 -47 -27 -8 -59 -19 -70 -24 -11 -4 -81 -31 -155 -59 -74
-28 -148 -58 -165 -66 -16 -7 -52 -23 -80 -35 -135 -59 -392 -185 -495 -245
-36 -21 -85 -49 -110 -63 -195 -110 -523 -347 -700 -507 -55 -49 -234 -229
-275 -276 -122 -138 -217 -265 -304 -406 -28 -46 -51 -85 -51 -87 0 -3 -13
-27 -28 -53 -36 -62 -105 -221 -142 -325 -55 -159 -85 -301 -106 -493 -3 -33
-6 -949 -5 -2035 l0 -1975 -37 -41 c-153 -168 -327 -421 -428 -624 -71 -140
-151 -340 -169 -420 -2 -8 -12 -51 -24 -96 -11 -44 -23 -98 -26 -120 -4 -21
-8 -46 -10 -54 -27 -98 -26 -648 1 -691 2 -4 6 -24 10 -45 20 -129 83 -336
151 -494 61 -141 135 -278 216 -398 27 -41 76 -126 109 -190 182 -353 412
-665 710 -963 68 -68 157 -153 197 -189 41 -36 79 -70 85 -75 6 -6 47 -40 91
-75 796 -649 1870 -1141 3015 -1380 58 -12 114 -24 125 -26 11 -2 31 -6 45 -9
14 -2 39 -7 55 -9 41 -7 89 -15 155 -26 52 -9 100 -16 172 -25 34 -5 279 -32
358 -40 259 -26 1057 -27 1198 -1 15 3 75 10 202 22 42 4 90 10 150 19 14 2
48 6 75 10 42 5 141 21 305 50 93 16 293 60 463 101 l188 46 47 -24 c192 -102
330 -186 476 -293 140 -102 177 -131 291 -230 83 -71 316 -302 395 -390 106
-118 191 -216 264 -305 43 -52 88 -106 100 -120 12 -14 50 -61 86 -105 387
-481 742 -787 1166 -1003 103 -52 304 -135 304 -125 0 3 6 1 13 -4 12 -10 157
-51 206 -59 14 -2 35 -6 46 -9 105 -22 335 -23 440 0 241 51 402 138 581 311
90 88 126 143 144 222 40 172 -68 413 -296 661 -82 90 -226 228 -309 297 -38
32 -75 63 -82 69 -25 21 -39 31 -73 55 -19 13 -37 27 -40 30 -3 4 -30 24 -60
45 -30 21 -86 62 -125 90 -38 28 -187 132 -330 230 -244 168 -634 443 -645
455 -3 3 -45 37 -95 75 -152 117 -234 185 -340 280 -49 44 -218 210 -250 246
-35 38 -156 189 -198 245 -32 44 -30 47 48 90 28 15 104 61 170 102 786 489
1370 1093 1702 1757 22 44 64 118 94 165 101 156 154 255 231 430 75 169 146
445 165 644 14 140 7 428 -12 526 -3 13 -7 40 -10 60 -34 231 -158 566 -287
779 -21 34 -38 65 -38 67 0 20 -192 279 -337 453 l-22 27 -4 2019 c-2 1111 -7
2040 -11 2065 -56 347 -159 625 -335 905 -55 86 -165 242 -180 255 -4 3 -30
34 -60 70 -259 315 -685 655 -1136 907 -79 44 -328 168 -435 217 -102 47 -429
178 -485 195 -22 7 -49 16 -60 21 -104 43 -565 176 -730 211 -33 7 -64 14 -70
15 -19 5 -160 36 -185 40 -14 3 -36 7 -50 10 -40 8 -360 62 -410 69 -72 11
-82 12 -145 19 -33 4 -76 9 -95 11 -34 5 -67 9 -175 19 -27 3 -86 8 -130 11
-44 4 -98 8 -120 10 -85 8 -672 24 -678 19z m4863 -14109 c5 -3 24 -8 43 -10
18 -2 69 -16 112 -31 262 -87 524 -270 644 -450 52 -77 88 -170 78 -197 -14
-37 -192 -55 -327 -33 -356 59 -765 319 -903 575 -33 62 -37 74 -25 88 17 21
87 52 141 62 46 8 222 6 237 -4z"/>
</g>
</svg>
